<svg xmlns="http://www.w3.org/2000/svg" viewBox="0 0 24 24" width="24" height="24" role="img" aria-label="Shoppy cart icon">
	<defs>
		<linearGradient id="bg" x1="4" y1="3" x2="20" y2="21" gradientUnits="userSpaceOnUse">
			<stop stop-color="#182235" />
			<stop offset="1" stop-color="#0b1220" />
		</linearGradient>
		<linearGradient id="accent" x1="8" y1="6" x2="18" y2="18" gradientUnits="userSpaceOnUse">
			<stop stop-color="#ffb14a" />
			<stop offset="1" stop-color="#ff6a3d" />
		</linearGradient>
	</defs>
	<rect width="24" height="24" rx="6" fill="url(#bg)" />
	<circle cx="7.25" cy="7.25" r="1.25" fill="url(#accent)" />
	<path
		d="M6.25 6.75h1.35c.36 0 .66.26.72.61l.33 1.89M9.03 9.25h9.2c.66 0 1.15.62.99 1.26l-.8 3.1c-.18.71-.83 1.2-1.56 1.2h-5.48c-.79 0-1.48-.53-1.68-1.3l-.67-3.05h8.58"
		fill="none"
		stroke="#f8fafc"
		stroke-linecap="round"
		stroke-linejoin="round"
		stroke-width="1.45"
	/>
	<path
		d="M10.1 15.9h6.8"
		fill="none"
		stroke="url(#accent)"
		stroke-linecap="round"
		stroke-width="1.6"
	/>
	<circle cx="10.2" cy="17.7" r="1.05" fill="#f8fafc" />
	<circle cx="16.9" cy="17.7" r="1.05" fill="#f8fafc" />
</svg>
